<svg width="27" height="27" viewBox="0 0 27 27" fill="none" xmlns="http://www.w3.org/2000/svg">
<path d="M0.987501 25.9352C0.899558 25.9352 0.812104 25.9269 0.725139 25.9103C0.638174 25.8946 0.558537 25.8741 0.486229 25.8487C0.413921 25.8233 0.355781 25.7974 0.31181 25.771L0.33233 25.6259C0.396821 25.6601 0.463266 25.6904 0.531666 25.7168C0.601043 25.7422 0.672862 25.7622 0.747125 25.7769C0.821387 25.7916 0.899558 25.7989 0.981638 25.7989C1.07935 25.7989 1.16827 25.7847 1.2484 25.7564C1.3295 25.728 1.39399 25.6821 1.44187 25.6186C1.48975 25.5541 1.51369 25.4686 1.51369 25.3621C1.51369 25.2781 1.49073 25.2087 1.4448 25.154C1.39985 25.0983 1.3339 25.0509 1.24693 25.0118C1.15997 24.9717 1.05395 24.9317 0.928872 24.8916C0.792073 24.8476 0.675794 24.8012 0.580034 24.7524C0.485252 24.7035 0.412455 24.6454 0.361644 24.578C0.31181 24.5096 0.286893 24.4241 0.286893 24.3215C0.286893 24.2208 0.31181 24.1299 0.361644 24.0488C0.411478 23.9668 0.485252 23.9018 0.582966 23.8539C0.680679 23.805 0.800379 23.7806 0.942064 23.7806C1.00265 23.7806 1.06225 23.7855 1.12088 23.7953C1.17951 23.8041 1.2352 23.8163 1.28797 23.8319C1.34074 23.8475 1.38813 23.8651 1.43014 23.8847C1.47216 23.9042 1.50734 23.9238 1.53567 23.9433L1.51515 24.0943C1.45653 24.0532 1.39448 24.02 1.32901 23.9946C1.26354 23.9682 1.19759 23.9492 1.13114 23.9374C1.06567 23.9247 1.00411 23.9184 0.946461 23.9184C0.857541 23.9184 0.774485 23.9321 0.697291 23.9594C0.620097 23.9868 0.55756 24.0303 0.50968 24.0899C0.462778 24.1485 0.439326 24.2247 0.439326 24.3185C0.439326 24.3947 0.458869 24.4583 0.497955 24.5091C0.53704 24.5589 0.598111 24.6038 0.681168 24.6439C0.764225 24.683 0.87171 24.724 1.00362 24.767C1.17169 24.8217 1.3036 24.8765 1.39936 24.9312C1.4961 24.9849 1.5645 25.046 1.60456 25.1144C1.6456 25.1818 1.66612 25.2629 1.66612 25.3577C1.66612 25.4632 1.64218 25.56 1.5943 25.6479C1.54642 25.7349 1.47216 25.8047 1.37152 25.8575C1.27185 25.9093 1.14384 25.9352 0.987501 25.9352ZM3.0765 25.9352C2.89084 25.9352 2.73939 25.9025 2.62213 25.837C2.50487 25.7705 2.41791 25.6777 2.36123 25.5585C2.30554 25.4393 2.27769 25.3015 2.27769 25.1452C2.27769 25.1022 2.27769 25.0475 2.27769 24.981C2.27769 24.9146 2.27769 24.8413 2.27769 24.7612C2.27769 24.681 2.27769 24.599 2.27769 24.5149C2.27769 24.3859 2.27769 24.2667 2.27769 24.1573C2.27769 24.0479 2.27769 23.9345 2.27769 23.8173H2.42426C2.42426 23.9345 2.42426 24.0479 2.42426 24.1573C2.42426 24.2667 2.42426 24.3859 2.42426 24.5149V25.1188C2.42426 25.2595 2.44527 25.3807 2.48728 25.4823C2.5293 25.5839 2.5977 25.6621 2.69248 25.7168C2.78824 25.7705 2.91625 25.7974 3.0765 25.7974C3.23577 25.7974 3.3628 25.7705 3.45758 25.7168C3.55334 25.6621 3.62174 25.5839 3.66278 25.4823C3.7048 25.3807 3.72581 25.2585 3.72581 25.1159V24.5149C3.72581 24.3859 3.72581 24.2667 3.72581 24.1573C3.72581 24.0479 3.72581 23.9345 3.72581 23.8173H3.87091C3.87091 23.9345 3.87091 24.0479 3.87091 24.1573C3.87091 24.2667 3.87091 24.3859 3.87091 24.5149C3.87091 24.599 3.87091 24.6815 3.87091 24.7626C3.87091 24.8428 3.87091 24.916 3.87091 24.9825C3.87091 25.0489 3.87091 25.1032 3.87091 25.1452C3.87091 25.3015 3.84306 25.4393 3.78737 25.5585C3.73265 25.6777 3.64666 25.7705 3.5294 25.837C3.41215 25.9025 3.26118 25.9352 3.0765 25.9352ZM5.09022 25.9352C5.00228 25.9352 4.91482 25.9269 4.82786 25.9103C4.74089 25.8946 4.66126 25.8741 4.58895 25.8487C4.51664 25.8233 4.4585 25.7974 4.41453 25.771L4.43505 25.6259C4.49954 25.6601 4.56598 25.6904 4.63438 25.7168C4.70376 25.7422 4.77558 25.7622 4.84984 25.7769C4.92411 25.7916 5.00228 25.7989 5.08436 25.7989C5.18207 25.7989 5.27099 25.7847 5.35111 25.7564C5.43222 25.728 5.49671 25.6821 5.54459 25.6186C5.59247 25.5541 5.61641 25.4686 5.61641 25.3621C5.61641 25.2781 5.59344 25.2087 5.54752 25.154C5.50257 25.0983 5.43661 25.0509 5.34965 25.0118C5.26268 24.9717 5.15666 24.9317 5.03159 24.8916C4.89479 24.8476 4.77851 24.8012 4.68275 24.7524C4.58797 24.7035 4.51517 24.6454 4.46436 24.578C4.41453 24.5096 4.38961 24.4241 4.38961 24.3215C4.38961 24.2208 4.41453 24.1299 4.46436 24.0488C4.5142 23.9668 4.58797 23.9018 4.68568 23.8539C4.7834 23.805 4.9031 23.7806 5.04478 23.7806C5.10536 23.7806 5.16497 23.7855 5.2236 23.7953C5.28223 23.8041 5.33792 23.8163 5.39069 23.8319C5.44345 23.8475 5.49085 23.8651 5.53286 23.8847C5.57488 23.9042 5.61006 23.9238 5.63839 23.9433L5.61787 24.0943C5.55924 24.0532 5.4972 24.02 5.43173 23.9946C5.36626 23.9682 5.3003 23.9492 5.23386 23.9374C5.16839 23.9247 5.10683 23.9184 5.04918 23.9184C4.96026 23.9184 4.8772 23.9321 4.80001 23.9594C4.72282 23.9868 4.66028 24.0303 4.6124 24.0899C4.5655 24.1485 4.54204 24.2247 4.54204 24.3185C4.54204 24.3947 4.56159 24.4583 4.60067 24.5091C4.63976 24.5589 4.70083 24.6038 4.78389 24.6439C4.86694 24.683 4.97443 24.724 5.10634 24.767C5.27441 24.8217 5.40632 24.8765 5.50208 24.9312C5.59882 24.9849 5.66722 25.046 5.70728 25.1144C5.74832 25.1818 5.76884 25.2629 5.76884 25.3577C5.76884 25.4632 5.7449 25.56 5.69702 25.6479C5.64914 25.7349 5.57488 25.8047 5.47423 25.8575C5.37457 25.9093 5.24656 25.9352 5.09022 25.9352ZM7.90767 25.9073C7.90767 25.7891 7.90767 25.6758 7.90767 25.5673C7.90767 25.4579 7.90767 25.3396 7.90767 25.2126V24.5149C7.90767 24.3859 7.90767 24.2667 7.90767 24.1573C7.90767 24.0479 7.90767 23.9345 7.90767 23.8173H8.05424C8.05424 23.9345 8.05424 24.0479 8.05424 24.1573C8.05424 24.2667 8.05424 24.3859 8.05424 24.5149V25.2126C8.05424 25.3396 8.05424 25.4579 8.05424 25.5673C8.05424 25.6758 8.05424 25.7891 8.05424 25.9073H7.90767ZM6.47128 25.9073C6.47128 25.7891 6.47128 25.6758 6.47128 25.5673C6.47128 25.4579 6.47128 25.3396 6.47128 25.2126V24.5149C6.47128 24.3859 6.47128 24.2667 6.47128 24.1573C6.47128 24.0479 6.47128 23.9345 6.47128 23.8173H6.61785C6.61785 23.9345 6.61785 24.0479 6.61785 24.1573C6.61785 24.2667 6.61785 24.3859 6.61785 24.5149V25.2126C6.61785 25.3396 6.61785 25.4579 6.61785 25.5673C6.61785 25.6758 6.61785 25.7891 6.61785 25.9073H6.47128ZM6.5475 24.9121V24.7802H7.98829V24.9121H6.5475ZM8.87364 25.9073C8.87364 25.7891 8.87364 25.6758 8.87364 25.5673C8.87364 25.4579 8.87364 25.3396 8.87364 25.2126V24.5149C8.87364 24.3859 8.87364 24.2667 8.87364 24.1573C8.87364 24.0479 8.87364 23.9345 8.87364 23.8173H9.02168C9.02168 23.9345 9.02168 24.0479 9.02168 24.1573C9.02168 24.2667 9.02168 24.3859 9.02168 24.5149V25.2126C9.02168 25.3396 9.02168 25.4579 9.02168 25.5673C9.02168 25.6758 9.02168 25.7891 9.02168 25.9073H8.87364ZM12.1909 25.9073C12.1245 25.8429 12.057 25.7769 11.9886 25.7095C11.9202 25.6411 11.8518 25.5741 11.7834 25.5087L11.0872 24.8257C10.9905 24.7299 10.9138 24.6385 10.8571 24.5516C10.8014 24.4646 10.7736 24.3664 10.7736 24.257C10.7736 24.1602 10.7946 24.0762 10.8366 24.0049C10.8786 23.9335 10.9348 23.8783 11.0051 23.8392C11.0765 23.8002 11.1551 23.7806 11.2411 23.7806C11.3242 23.7806 11.3999 23.7987 11.4683 23.8348C11.5367 23.871 11.5914 23.9223 11.6325 23.9887C11.6735 24.0552 11.694 24.1348 11.694 24.2276C11.694 24.3088 11.6794 24.3791 11.6501 24.4387C11.6207 24.4983 11.5817 24.5501 11.5328 24.5941C11.4849 24.638 11.4322 24.6757 11.3745 24.7069C11.3169 24.7382 11.2597 24.7656 11.203 24.789L11.1297 24.6952C11.2069 24.663 11.2783 24.6273 11.3437 24.5882C11.4102 24.5482 11.4629 24.4998 11.502 24.4431C11.5411 24.3855 11.5606 24.3141 11.5606 24.2291C11.5606 24.1285 11.5308 24.0488 11.4712 23.9902C11.4116 23.9316 11.3359 23.9023 11.2441 23.9023C11.1405 23.9023 11.0589 23.9365 10.9993 24.0049C10.9407 24.0733 10.9113 24.1568 10.9113 24.2555C10.9113 24.3415 10.9343 24.4206 10.9802 24.4929C11.0262 24.5653 11.097 24.6488 11.1928 24.7436L11.8846 25.4222C11.9676 25.5033 12.0497 25.5844 12.1308 25.6655C12.2129 25.7466 12.2945 25.8272 12.3756 25.9073H12.1909ZM11.1371 25.9352C10.9954 25.9352 10.8771 25.9098 10.7824 25.859C10.6886 25.8072 10.6177 25.7388 10.5698 25.6538C10.5229 25.5688 10.4995 25.4755 10.4995 25.3738C10.4995 25.2546 10.5268 25.152 10.5816 25.066C10.6373 24.98 10.7071 24.9077 10.7912 24.8491C10.8752 24.7895 10.9602 24.7402 11.0462 24.7011L11.1092 24.8022C11.0203 24.8432 10.9402 24.8901 10.8688 24.9429C10.7975 24.9947 10.7408 25.0553 10.6988 25.1247C10.6568 25.194 10.6358 25.2747 10.6358 25.3665C10.6358 25.4554 10.6558 25.5331 10.6959 25.5996C10.7359 25.666 10.7936 25.7173 10.8688 25.7534C10.9451 25.7896 11.0374 25.8077 11.1459 25.8077C11.2279 25.8077 11.3022 25.7955 11.3686 25.771C11.4361 25.7456 11.4996 25.7061 11.5592 25.6523C11.6198 25.5976 11.6803 25.5268 11.7409 25.4398L11.8391 25.516L11.8479 25.5556H11.8113C11.7497 25.6367 11.6862 25.7056 11.6207 25.7622C11.5553 25.8189 11.4835 25.8619 11.4053 25.8912C11.3271 25.9205 11.2377 25.9352 11.1371 25.9352ZM11.9022 25.4588L11.8069 25.3782C11.8665 25.2834 11.9237 25.1926 11.9784 25.1056C12.0341 25.0186 12.0903 24.9302 12.1469 24.8403L12.2642 24.9092C12.2036 25.002 12.1435 25.0934 12.0839 25.1833C12.0243 25.2732 11.9637 25.365 11.9022 25.4588ZM13.5721 25.9073C13.5721 25.7891 13.5721 25.6758 13.5721 25.5673C13.5721 25.4579 13.5721 25.3396 13.5721 25.2126V24.5149C13.5721 24.3859 13.5721 24.2667 13.5721 24.1573C13.5721 24.0479 13.5721 23.9345 13.5721 23.8173H13.7186C13.7186 23.9345 13.7186 24.0479 13.7186 24.1573C13.7186 24.2667 13.7186 24.3859 13.7186 24.5149V25.1906C13.7186 25.3186 13.7186 25.4373 13.7186 25.5468C13.7186 25.6552 13.7186 25.7686 13.7186 25.8868L13.6556 25.7725H14.025C14.1432 25.7725 14.2473 25.7725 14.3372 25.7725C14.4271 25.7725 14.5101 25.7725 14.5863 25.7725C14.6635 25.7725 14.7422 25.7725 14.8223 25.7725V25.9073H13.5721ZM16.0545 25.9352C15.8835 25.9352 15.733 25.9073 15.603 25.8517C15.4731 25.795 15.3641 25.7168 15.2762 25.6171C15.1892 25.5165 15.1232 25.4017 15.0783 25.2727C15.0343 25.1427 15.0123 25.005 15.0123 24.8594C15.0123 24.6561 15.0539 24.4734 15.1369 24.3112C15.22 24.148 15.3387 24.019 15.4931 23.9242C15.6485 23.8285 15.8336 23.7806 16.0486 23.7806C16.2128 23.7806 16.3583 23.8085 16.4854 23.8642C16.6124 23.9199 16.7199 23.997 16.8078 24.0957C16.8968 24.1944 16.9637 24.3088 17.0086 24.4387C17.0546 24.5687 17.0775 24.7084 17.0775 24.8579C17.0775 25.0641 17.036 25.2483 16.9529 25.4105C16.8709 25.5727 16.7531 25.7007 16.5997 25.7945C16.4473 25.8883 16.2655 25.9352 16.0545 25.9352ZM16.0486 25.7974C16.202 25.7974 16.3339 25.772 16.4443 25.7212C16.5548 25.6694 16.6451 25.5991 16.7155 25.5101C16.7868 25.4212 16.8396 25.3211 16.8738 25.2097C16.908 25.0973 16.9251 24.98 16.9251 24.8579C16.9251 24.727 16.9065 24.6048 16.8694 24.4915C16.8332 24.3772 16.7785 24.2775 16.7052 24.1925C16.6319 24.1065 16.5406 24.0396 16.4311 23.9917C16.3217 23.9428 16.1942 23.9184 16.0486 23.9184C15.8981 23.9184 15.7672 23.9438 15.6558 23.9946C15.5454 24.0454 15.4535 24.1153 15.3802 24.2042C15.3079 24.2921 15.2537 24.3923 15.2175 24.5047C15.1824 24.617 15.1648 24.7348 15.1648 24.8579C15.1648 24.982 15.1819 25.1007 15.2161 25.2141C15.2513 25.3264 15.3045 25.4266 15.3758 25.5145C15.4481 25.6025 15.54 25.6719 15.6514 25.7227C15.7628 25.7725 15.8952 25.7974 16.0486 25.7974ZM18.5223 25.9352C18.3366 25.9352 18.1852 25.9025 18.0679 25.837C17.9507 25.7705 17.8637 25.6777 17.807 25.5585C17.7513 25.4393 17.7235 25.3015 17.7235 25.1452C17.7235 25.1022 17.7235 25.0475 17.7235 24.981C17.7235 24.9146 17.7235 24.8413 17.7235 24.7612C17.7235 24.681 17.7235 24.599 17.7235 24.5149C17.7235 24.3859 17.7235 24.2667 17.7235 24.1573C17.7235 24.0479 17.7235 23.9345 17.7235 23.8173H17.8701C17.8701 23.9345 17.8701 24.0479 17.8701 24.1573C17.8701 24.2667 17.8701 24.3859 17.8701 24.5149V25.1188C17.8701 25.2595 17.8911 25.3807 17.9331 25.4823C17.9751 25.5839 18.0435 25.6621 18.1383 25.7168C18.234 25.7705 18.362 25.7974 18.5223 25.7974C18.6816 25.7974 18.8086 25.7705 18.9034 25.7168C18.9991 25.6621 19.0675 25.5839 19.1086 25.4823C19.1506 25.3807 19.1716 25.2585 19.1716 25.1159V24.5149C19.1716 24.3859 19.1716 24.2667 19.1716 24.1573C19.1716 24.0479 19.1716 23.9345 19.1716 23.8173H19.3167C19.3167 23.9345 19.3167 24.0479 19.3167 24.1573C19.3167 24.2667 19.3167 24.3859 19.3167 24.5149C19.3167 24.599 19.3167 24.6815 19.3167 24.7626C19.3167 24.8428 19.3167 24.916 19.3167 24.9825C19.3167 25.0489 19.3167 25.1032 19.3167 25.1452C19.3167 25.3015 19.2889 25.4393 19.2332 25.5585C19.1784 25.6777 19.0925 25.7705 18.9752 25.837C18.8579 25.9025 18.707 25.9352 18.5223 25.9352ZM20.1344 25.9073C20.1344 25.7891 20.1344 25.6758 20.1344 25.5673C20.1344 25.4579 20.1344 25.3396 20.1344 25.2126V24.5149C20.1344 24.3859 20.1344 24.2667 20.1344 24.1573C20.1344 24.0479 20.1344 23.9345 20.1344 23.8173H20.2751C20.4149 24.0117 20.5497 24.2003 20.6797 24.383C20.8106 24.5657 20.9391 24.7455 21.0651 24.9224L21.5811 25.6406H21.5957V24.5149C21.5957 24.3859 21.5957 24.2667 21.5957 24.1573C21.5957 24.0479 21.5957 23.9345 21.5957 23.8173H21.7379C21.7379 23.9345 21.7379 24.0479 21.7379 24.1573C21.7379 24.2667 21.7379 24.3859 21.7379 24.5149V25.2126C21.7379 25.3396 21.7379 25.4579 21.7379 25.5673C21.7379 25.6758 21.7379 25.7891 21.7379 25.9073H21.6001C21.4848 25.7442 21.3627 25.5727 21.2337 25.3929C21.1047 25.2121 20.9625 25.0133 20.8072 24.7963L20.2912 24.0737H20.2766V25.2126C20.2766 25.3396 20.2766 25.4579 20.2766 25.5673C20.2766 25.6758 20.2766 25.7891 20.2766 25.9073H20.1344ZM23.4919 25.9352C23.3102 25.9352 23.1504 25.9078 23.0126 25.8531C22.8749 25.7984 22.7596 25.7222 22.6667 25.6245C22.5739 25.5258 22.504 25.411 22.4571 25.28C22.4102 25.1491 22.3868 25.0079 22.3868 24.8564C22.3868 24.6473 22.4298 24.4617 22.5158 24.2995C22.6018 24.1373 22.7219 24.0102 22.8763 23.9184C23.0317 23.8265 23.212 23.7806 23.4172 23.7806C23.4905 23.7806 23.5613 23.786 23.6297 23.7967C23.6981 23.8075 23.7626 23.8216 23.8232 23.8392C23.8838 23.8568 23.939 23.8759 23.9888 23.8964C24.0386 23.9159 24.0811 23.9355 24.1163 23.955L24.0987 24.1045C24.0196 24.0606 23.9414 24.0254 23.8642 23.999C23.788 23.9716 23.7133 23.9516 23.64 23.9389C23.5667 23.9262 23.4939 23.9199 23.4216 23.9199C23.2906 23.9199 23.1709 23.9418 23.0625 23.9858C22.955 24.0288 22.8617 24.0913 22.7825 24.1734C22.7044 24.2545 22.6438 24.3527 22.6008 24.468C22.5588 24.5833 22.5378 24.7128 22.5378 24.8564C22.5378 24.9893 22.5563 25.1129 22.5935 25.2273C22.6316 25.3406 22.6892 25.4403 22.7664 25.5263C22.8446 25.6123 22.9442 25.6792 23.0654 25.7271C23.1876 25.7749 23.3317 25.7989 23.4978 25.7989C23.5506 25.7989 23.6038 25.7964 23.6576 25.7916C23.7123 25.7857 23.767 25.7769 23.8217 25.7652C23.8774 25.7534 23.9316 25.7383 23.9844 25.7197C24.0372 25.7012 24.0875 25.6787 24.1354 25.6523L24.1544 25.8033C24.1202 25.8189 24.0787 25.8346 24.0298 25.8502C23.982 25.8658 23.9292 25.88 23.8716 25.8927C23.8139 25.9054 23.7528 25.9157 23.6883 25.9235C23.6248 25.9313 23.5594 25.9352 23.4919 25.9352ZM24.0108 25.8047C24.0108 25.7041 24.0108 25.6167 24.0108 25.5424C24.0108 25.4681 24.0108 25.3939 24.0108 25.3196C24.0108 25.2307 24.0108 25.152 24.0108 25.0836C24.0108 25.0152 24.0108 24.9463 24.0108 24.877H24.1544C24.1544 24.9463 24.1544 25.0152 24.1544 25.0836C24.1544 25.152 24.1544 25.2307 24.1544 25.3196C24.1544 25.3939 24.1544 25.4681 24.1544 25.5424C24.1544 25.6167 24.1544 25.7036 24.1544 25.8033L24.0108 25.8047ZM24.7989 25.9073C24.7989 25.7891 24.7989 25.6758 24.7989 25.5673C24.7989 25.4579 24.7989 25.3391 24.7989 25.2111V24.5149C24.7989 24.3859 24.7989 24.2667 24.7989 24.1573C24.7989 24.0479 24.7989 23.9345 24.7989 23.8173H26.0492V23.9506C25.9475 23.9506 25.8381 23.9506 25.7208 23.9506C25.6046 23.9506 25.4673 23.9506 25.309 23.9506H24.8663L24.944 23.8348C24.944 23.9531 24.944 24.0669 24.944 24.1763C24.944 24.2858 24.944 24.4045 24.944 24.5325V25.1921C24.944 25.3191 24.944 25.4373 24.944 25.5468C24.944 25.6552 24.944 25.7686 24.944 25.8868L24.8707 25.774H25.3236C25.4585 25.774 25.5855 25.774 25.7047 25.774C25.8239 25.774 25.9382 25.774 26.0477 25.774V25.9073H24.7989ZM24.9147 24.9107V24.7802H25.3339C25.4726 24.7802 25.5923 24.7802 25.693 24.7802C25.7936 24.7802 25.8909 24.7802 25.9847 24.7802V24.9107C25.885 24.9107 25.7848 24.9107 25.6842 24.9107C25.5845 24.9107 25.4668 24.9107 25.331 24.9107H24.9147Z" fill="#8C773E"/>
<path fill-rule="evenodd" clip-rule="evenodd" d="M0.567017 0H1.98942V19.2574L12.3526 0H13.9782L24.3414 19.2574V0H25.7638V22.3972H24.3414L20.6838 15.4896H5.64702L1.98942 22.3972H0.567017V0ZM13.1654 1.25592L6.25662 14.2337H20.0742L13.1654 1.25592Z" fill="#8C773E"/>
</svg>
